<?xml version="1.0" standalone="no"?><!DOCTYPE svg PUBLIC "-//W3C//DTD SVG 1.1//EN" "http://www.w3.org/Graphics/SVG/1.1/DTD/svg11.dtd"><svg class="icon" width="200px" height="200.00px" viewBox="0 0 1024 1024" version="1.1" xmlns="http://www.w3.org/2000/svg"><path d="M967.037112 405.082649c4.61095-60.822347-54.602413-106.188859-112.132796-85.779079-19.342792-32.359652-56.239396-46.670499-90.349029-39.199579 60.634349-34.222632 55.562403-128.948615-14.954839-153.155355C754.214398 66.12629 694.998034 20.757777 637.468652 41.169558 610.971937-3.159966 551.527575-13.667853 511.440006 19.372792 384.711367 69.219256 301.384262 191.531943 301.384262 327.71148V678.212715c38.926582 26.02372 93.866992 15.489834 119.23972-27.099709 34.46563 12.157869 69.771251 0.541994 91.378018-23.916743 21.556768 24.581736 56.885389 36.30161 91.536017 24.037741 26.656714 44.765519 86.709069 54.395416 125.978646 21.996764 39.05358 32.163654 99.103935 22.990753 125.978647-22.117762 57.314384 20.217783 117.012743-25.255729 112.032797-86.334073 75.504189-26.404716 75.220192-133.702564-0.489995-159.696284z" fill="#FFDBE0" /><path d="M511.443006 19.372792C471.673433-13.398856 411.927075-3.159966 385.446359 41.519554c-57.561382-20.225783-116.882744 25.397727-111.836798 86.416072-30.359674 10.620886-48.40348 34.43463-54.145419 60.726347-7.47492 34.224632 5.908937 72.666219 40.190569 91.835014-34.396631-8.022914-72.089226 6.162934-91.643016 39.159579-57.561382-20.226783-116.882744 25.394727-111.836798 86.415072-75.006194 26.244718-74.924195 132.885573 0.432995 159.008292-4.794948 60.932345 54.599413 106.491856 112.060796 86.154074 26.656714 44.765519 86.709069 54.395416 125.978647 21.996764a83.859099 83.859099 0 0 0 6.739927 4.981947l80.976131-154.58434a206.040787 206.040787 0 0 0 23.525747-95.605973v-191.987938A275.155044 275.155044 0 0 1 511.443006 19.373792z" fill="#FFB5C0" /><path d="M897.567858 493.134703c-16.009828-30.148676-53.424426-41.609553-83.578102-25.607725l-66.527285 35.32462-35.324621-66.529285c-16.008828-30.151676-53.430426-41.610553-83.577102-25.608725-30.150676 16.010828-41.614553 53.429426-25.607725 83.577102l55.785401 105.066872-27.616704 90.137031C615.114892 741.732032 566.771412 777.415649 512 777.415649a124.958658 124.958658 0 0 1-27.059709-2.981968H423.400952v249.553319h338.339365c10.629886 0 18.139805-10.476887 14.609843-20.47578-4.889947-13.851851-14.599843-25.434727-27.122708-32.750648-19.022796-11.115881-31.196665-30.969667-31.196665-52.956431v-47.115494c0-28.488694 4.243954-56.81839 12.589865-84.064097l49.351469-161.07427 91.987012-48.837475c30.151676-16.006828 41.614553-53.426426 25.608725-83.577102z" fill="#E8B5B1" /><path d="M484.937291 1023.715003a69.132257 69.132257 0 0 1-20.331782-48.949474V823.385155c0-18.359803 7.314921-35.969614 20.331782-48.949474-42.79254-9.495898-78.665155-41.219557-92.062011-84.939088l-27.616704-90.137031 55.785401-105.066872c16.009828-30.149676 4.543951-67.568274-25.607725-83.577102-30.148676-16.001828-67.568274-4.544951-83.577102 25.607725l-35.323621 66.530285-66.529285-35.32362c-30.151676-16.010828-67.571274-4.541951-83.576102 25.607725-16.009828 30.149676-4.542951 67.569274 25.607725 83.577102l91.987012 48.837475 49.351469 161.07427a286.924918 286.924918 0 0 1 12.589865 84.064097v47.115494c0 21.987764-12.171869 41.840551-31.196665 52.956431-12.522865 7.315921-22.232761 18.899797-27.122708 32.750648-3.528962 10.000893 3.978957 20.47578 14.609843 20.47578h222.954605z" fill="#D6948C" /><path d="M553.204557 112.328793c0-22.757756-18.448802-41.206557-41.206557-41.206557S470.790443 89.571038 470.790443 112.328793c-22.758756 0-41.206557 18.448802-41.206558 41.206558s18.447802 41.206557 41.206558 41.206557c0 22.758756 18.447802 41.206557 41.206557 41.206557s41.206557-18.447802 41.206557-41.206557c22.757756 0 41.206557-18.447802 41.206558-41.206557s-18.448802-41.206557-41.206558-41.206558z" fill="#FFB5C0" /><path d="M488.365254 153.535351a23.631746 23.631746 0 1 0 47.264492 0 23.631746 23.631746 0 1 0-47.264492 0z" fill="#FFDBE0" /><path d="M720.54576 413.927554c0-34.134633-27.671703-61.809336-61.809336-61.809337s-61.809336 27.674703-61.809336 61.809337c-34.138633 0-61.810336 27.674703-61.810336 61.809336s27.671703 61.810336 61.809336 61.810336c0 34.135633 27.672703 61.809336 61.809336 61.809336s61.810336-27.673703 61.810336-61.809336c34.137633 0 61.809336-27.673703 61.809336-61.809336s-27.671703-61.809336-61.809336-61.809336z" fill="#FFB5C0" /><path d="M635.104678 475.73789a23.631746 23.631746 0 1 0 47.263492 0 23.631746 23.631746 0 1 0-47.263492 0z" fill="#FFDBE0" /><path d="M421.639971 375.743964c-5.119945-22.173762-27.245707-35.999613-49.419469-30.879669-22.174762 5.119945-35.999613 27.245707-30.879669 49.41847-22.175762 5.119945-35.999613 27.245707-30.879668 49.419469s27.244707 35.999613 49.418469 30.879668c5.119945 22.173762 27.245707 35.999613 49.419469 30.879668s35.999613-27.244707 30.879669-49.418469c22.175762-5.119945 35.999613-27.245707 30.879668-49.419469s-27.245707-35.999613-49.419469-30.879668z" fill="#FF8E9E" /><path d="M367.125556 425.165433a23.631746 23.631746 0 1 0 47.264493 0 23.631746 23.631746 0 1 0-47.264493 0z" fill="#FFDBE0" /><path d="M863.590223 789.719517c0-22.758756 18.448802-41.206557 41.206558-41.206558s41.206557 18.447802 41.206557 41.206558c22.758756 0 41.206557 18.447802 41.206557 41.206557s-18.447802 41.206557-41.206557 41.206557c0 22.758756-18.447802 41.206557-41.206557 41.206558s-41.206557-18.447802-41.206558-41.206558c-22.757756 0-41.206557-18.447802-41.206557-41.206557s18.448802-41.206557 41.206557-41.206557z" fill="#FFB5C0" /><path d="M881.165034 830.926074a23.631746 23.631746 0 1 0 47.264493 0 23.631746 23.631746 0 1 0-47.264493 0z" fill="#FFDBE0" /><path d="M86.004576 900.367328c0-22.758756 18.447802-41.206557 41.206557-41.206557s41.206557 18.447802 41.206558 41.206557c22.757756 0 41.206557 18.447802 41.206557 41.206557s-18.448802 41.206557-41.206557 41.206558c0 22.758756-18.448802 41.206557-41.206558 41.206557S86.004576 1005.539198 86.004576 982.779443c-22.758756 0-41.206557-18.447802-41.206557-41.206558S63.247821 900.367328 86.004576 900.367328z" fill="#FF8E9E" /><path d="M103.578387 941.573885a23.631746 23.631746 0 1 0 47.264493 0 23.631746 23.631746 0 1 0-47.264493 0z" fill="#FFDBE0" /><path d="M219.466142 188.661973c0-34.135633-27.672703-61.809336-61.809336-61.809336s-61.810336 27.673703-61.810336 61.809336c-34.137633 0-61.809336 27.674703-61.809336 61.809336s27.671703 61.810336 61.809336 61.810336c0 34.135633 27.672703 61.809336 61.809336 61.809336s61.810336-27.673703 61.810336-61.809336c34.137633 0 61.809336-27.674703 61.809336-61.809336s-27.671703-61.809336-61.809336-61.809336z" fill="#FF8E9E" /><path d="M134.02406 250.472309a23.631746 23.631746 0 1 0 47.264493 0 23.631746 23.631746 0 1 0-47.264493 0z" fill="#FFDBE0" /><path d="M846.967402 197.692876c0-22.758756-18.447802-41.206557-41.206558-41.206557s-41.206557 18.447802-41.206557 41.206557c-22.757756 0-41.206557 18.447802-41.206557 41.206558s18.448802 41.206557 41.206557 41.206557c0 22.757756 18.448802 41.206557 41.206557 41.206557s41.206557-18.448802 41.206558-41.206557c22.758756 0 41.206557-18.448802 41.206557-41.206557s-18.447802-41.206557-41.206557-41.206558z" fill="#FFB5C0" /><path d="M782.129098 238.899434a23.631746 23.631746 0 1 0 47.264492 0 23.631746 23.631746 0 1 0-47.264492 0z" fill="#FFDBE0" /><path d="M395.544251 824.283145c-24.15974 0-43.813529 19.653789-43.813529 43.81353a15.452834 15.452834 0 0 0 30.904668 0c0-7.118924 5.791938-12.907861 12.908861-12.907862s12.907861 5.789938 12.907861 12.907862a15.452834 15.452834 0 0 0 30.904668 0c0-24.15974-19.655789-43.813529-43.812529-43.81353z m232.909498 0c-24.15974 0-43.813529 19.653789-43.813529 43.81353a15.452834 15.452834 0 0 0 30.905668 0c0-7.118924 5.790938-12.907861 12.907861-12.907862s12.907861 5.789938 12.907861 12.907862a15.452834 15.452834 0 0 0 30.904668 0c-0.002-24.15974-19.655789-43.813529-43.812529-43.81353z m-76.219181 44.70952a15.452834 15.452834 0 0 0-21.802766 1.497984c-9.763895 11.20388-27.109709 11.19588-36.867604 0a15.452834 15.452834 0 0 0-23.29975 20.304782c22.083763 25.339728 61.40334 25.310728 83.465104 0a15.452834 15.452834 0 0 0-1.495984-21.802766z" fill="#313D40" /></svg>